<?xml version="1.0" encoding="UTF-8"?>
<svg id="Layer_2" data-name="Layer 2" xmlns="http://www.w3.org/2000/svg" viewBox="0 0 748.3 216">
  <defs>
    <style>
      .cls-1 {
        fill: #fff;
      }
    </style>
  </defs>
  <g id="Layer_1" data-name="Layer 1">
    <g>
      <path class="cls-1" d="M162.73,100.3l-20.97-36.38-15.41-26.66v-.04l-7.68-13.24L104.81,0h-44.81L2.09,100.3c-2.78,4.81-2.78,10.68,0,15.41l57.92,100.3h44.81l13.86-23.97,7.68-13.24v-.04l15.41-26.66,20.97-36.38c2.78-4.77,2.78-10.64,0-15.41ZM87.86,192.03l-7.64,13.29L28.44,115.7c-2.78-4.72-2.78-10.59,0-15.41L80.22,10.68l7.64,13.29,2.21,3.84-41.85,72.49c-2.78,4.81-2.78,10.68,0,15.41l41.85,72.49-2.21,3.84ZM94.35,115.7l18.81,32.53-2.21,3.84-7.68,13.29-28.69-49.66c-2.78-4.72-2.78-10.59,0-15.41l28.69-49.66,7.68,13.29,2.21,3.84-18.81,32.53c-2.74,4.81-2.74,10.68,0,15.41ZM131.96,115.7l-5.61,9.71-5.61-9.71c-2.78-4.72-2.78-10.59,0-15.41l5.61-9.71,5.61,9.71c2.78,4.77,2.78,10.64,0,15.41Z"/>
      <g>
        <g>
          <path class="cls-1" d="M191.19,30.98h20.93c16.15,0,27.69,8.68,27.69,25.26s-11.53,25.27-27.69,25.27h-20.93V30.98ZM203.29,41.37v29.75h8.61c9.32,0,15.59-5.48,15.59-14.88s-6.26-14.87-15.59-14.87h-8.61Z"/>
          <path class="cls-1" d="M246.95,30.98h12.1v50.53h-12.1V30.98Z"/>
          <path class="cls-1" d="M306.46,72.75h-23.91l-3.77,8.75h-12.17l22.13-50.6h12.38l22.06,50.6h-12.95l-3.77-8.75ZM302.12,62.65l-7.61-17.65-7.62,17.65h15.23Z"/>
          <path class="cls-1" d="M329.12,30.98h17.72l12.81,32.59,12.81-32.59h16.94v50.53h-11.67v-38.22l-14.8,38.29h-8.12l-14.59-38.01v37.93h-11.1V30.98Z"/>
          <path class="cls-1" d="M397.91,56.24c0-15.51,11.67-26.12,26.83-26.12s26.76,10.6,26.76,26.12-11.67,26.12-26.76,26.12-26.83-10.68-26.83-26.12ZM439.19,56.24c0-8.47-5.55-15.3-14.45-15.3s-14.52,6.76-14.52,15.3,5.62,15.3,14.52,15.3,14.45-6.76,14.45-15.3Z"/>
          <path class="cls-1" d="M509.11,81.65h-9.82l-27.54-34.94v34.8h-11.82V30.98h13.74l23.91,30.96v-30.96h11.53v50.67Z"/>
          <path class="cls-1" d="M519.96,30.98h20.93c16.15,0,27.69,8.68,27.69,25.26s-11.53,25.27-27.69,25.27h-20.93V30.98ZM532.06,41.37v29.75h8.61c9.32,0,15.59-5.48,15.59-14.88s-6.26-14.87-15.59-14.87h-8.61Z"/>
        </g>
        <g>
          <path class="cls-1" d="M191.19,127.13c0-15.01,10.75-26.12,25.91-26.12,16.44,0,22.7,11.31,23.91,17.08h-12.31c-1.14-1.99-4.63-6.19-11.6-6.19-8.4,0-13.52,6.9-13.52,15.23s5.13,15.23,13.52,15.23c7.47,0,10.6-4.27,11.67-6.19h12.24c-1,5.05-6.9,17.08-23.91,17.08-15.16,0-25.91-11.1-25.91-26.12Z"/>
          <path class="cls-1" d="M245.88,127.13c0-15.51,11.67-26.12,26.83-26.12s26.76,10.6,26.76,26.12-11.67,26.12-26.76,26.12-26.83-10.68-26.83-26.12ZM287.16,127.13c0-8.47-5.55-15.3-14.45-15.3s-14.52,6.76-14.52,15.3,5.62,15.3,14.52,15.3,14.45-6.76,14.45-15.3Z"/>
          <path class="cls-1" d="M357.08,152.54h-9.82l-27.54-34.94v34.8h-11.82v-50.53h13.74l23.91,30.96v-30.96h11.53v50.67Z"/>
          <path class="cls-1" d="M383.45,112.4h-19.14v-10.53h50.31v10.53h-19.14v40h-12.03v-40Z"/>
          <path class="cls-1" d="M420.41,101.87h29.61c11.18,0,18.01,5.41,18.01,15.87,0,7.05-3.56,11.89-9.61,14.09l11.39,20.57h-12.74l-10.67-19.22h-13.88v19.22h-12.1v-50.53ZM432.51,112.26v10.75h16.23c4.49,0,6.9-1.78,6.9-5.27,0-3.84-2.35-5.48-6.9-5.48h-16.23Z"/>
          <path class="cls-1" d="M514.81,143.64h-23.91l-3.77,8.75h-12.17l22.13-50.6h12.38l22.06,50.6h-12.95l-3.77-8.75ZM510.47,133.54l-7.61-17.65-7.62,17.65h15.23Z"/>
          <path class="cls-1" d="M532.56,127.13c0-15.01,10.75-26.12,25.91-26.12,16.44,0,22.7,11.31,23.91,17.08h-12.31c-1.14-1.99-4.63-6.19-11.6-6.19-8.4,0-13.52,6.9-13.52,15.23s5.13,15.23,13.52,15.23c7.47,0,10.6-4.27,11.67-6.19h12.24c-1,5.05-6.9,17.08-23.91,17.08-15.16,0-25.91-11.1-25.91-26.12Z"/>
          <path class="cls-1" d="M604.12,112.4h-19.14v-10.53h50.31v10.53h-19.14v40h-12.03v-40Z"/>
          <path class="cls-1" d="M636.88,127.13c0-15.51,11.67-26.12,26.83-26.12s26.76,10.6,26.76,26.12-11.67,26.12-26.76,26.12-26.83-10.68-26.83-26.12ZM678.16,127.13c0-8.47-5.55-15.3-14.45-15.3s-14.52,6.76-14.52,15.3,5.62,15.3,14.52,15.3,14.45-6.76,14.45-15.3Z"/>
          <path class="cls-1" d="M698.9,101.87h29.61c11.18,0,18.01,5.41,18.01,15.87,0,7.05-3.56,11.89-9.61,14.09l11.39,20.57h-12.74l-10.67-19.22h-13.88v19.22h-12.1v-50.53ZM711,112.26v10.75h16.23c4.49,0,6.9-1.78,6.9-5.27,0-3.84-2.35-5.48-6.9-5.48h-16.23Z"/>
        </g>
        <g>
          <path class="cls-1" d="M191.2,172.49h4.59l3.32,8.46,3.32-8.46h4.39v13.11h-3.03v-9.92l-3.84,9.93h-2.11l-3.78-9.86v9.84h-2.88v-13.11Z"/>
          <path class="cls-1" d="M210.04,172.49h3.14v13.11h-3.14v-13.11Z"/>
          <path class="cls-1" d="M220.4,175.22h-4.97v-2.73h13.05v2.73h-4.97v10.38h-3.12v-10.38Z"/>
          <path class="cls-1" d="M233.35,176c0,.72.63,1.13,1.77,1.26.72.07,1.26.11,2.07.18,2.99.26,4.97,1.35,4.97,4.17,0,2.57-1.99,4.23-5.82,4.23-4.48,0-6.15-2.25-6.57-4.12h3.31c.28.7,1.24,1.59,3.27,1.59,1.74,0,2.57-.59,2.57-1.48,0-.98-.74-1.31-1.9-1.44-.77-.09-1.33-.13-2.08-.2-2.88-.28-4.78-1.61-4.78-4.06s2.27-3.88,5.5-3.88c4.3,0,5.82,2.03,6.21,3.71h-3.16c-.29-.5-1.2-1.2-3.05-1.2-1.46,0-2.29.46-2.29,1.24Z"/>
          <path class="cls-1" d="M253.95,172.49h3.1v7.37c0,3.36-2.16,6.02-6.26,6.02s-6.29-2.62-6.29-6.02v-7.37h3.14v7.16c0,2.01,1.13,3.36,3.16,3.36s3.16-1.35,3.16-3.36v-7.16Z"/>
          <path class="cls-1" d="M260.14,172.49h7.57c2.86,0,4.39,1.4,4.39,3.56,0,1.37-.92,2.25-1.85,2.62,1.14.39,2.18,1.44,2.18,3.18,0,2.27-1.57,3.75-4.6,3.75h-7.7v-13.11ZM263.22,175.02v2.58h3.99c1.07,0,1.7-.4,1.7-1.29s-.61-1.29-1.7-1.29h-3.99ZM263.22,180.14v2.94h4.06c1.29,0,1.96-.52,1.96-1.48s-.66-1.46-1.96-1.46h-4.06Z"/>
          <path class="cls-1" d="M274.99,172.49h3.14v13.11h-3.14v-13.11Z"/>
          <path class="cls-1" d="M283.98,176c0,.72.63,1.13,1.77,1.26.72.07,1.26.11,2.07.18,2.99.26,4.97,1.35,4.97,4.17,0,2.57-1.99,4.23-5.82,4.23-4.48,0-6.15-2.25-6.57-4.12h3.31c.28.7,1.24,1.59,3.27,1.59,1.74,0,2.57-.59,2.57-1.48,0-.98-.74-1.31-1.9-1.44-.77-.09-1.33-.13-2.08-.2-2.88-.28-4.78-1.61-4.78-4.06s2.27-3.88,5.5-3.88c4.3,0,5.82,2.03,6.21,3.71h-3.16c-.29-.5-1.2-1.2-3.05-1.2-1.46,0-2.29.46-2.29,1.24Z"/>
          <path class="cls-1" d="M295.3,172.49h3.14v5.15h6.41v-5.15h3.12v13.11h-3.12v-5.19h-6.41v5.19h-3.14v-13.11Z"/>
          <path class="cls-1" d="M311.17,172.49h3.14v13.11h-3.14v-13.11Z"/>
          <path class="cls-1" d="M322.16,172.49h10.97v2.58h-7.83v2.36h4.67v2.64h-4.67v2.8h8.55v2.72h-11.68v-13.11Z"/>
          <path class="cls-1" d="M336.08,172.49h3.14v10.34h7.74v2.77h-10.87v-13.11Z"/>
          <path class="cls-1" d="M349.15,172.49h10.97v2.58h-7.83v2.36h4.67v2.64h-4.67v2.8h8.55v2.72h-11.68v-13.11Z"/>
          <path class="cls-1" d="M361.99,179.05c0-3.9,2.79-6.78,6.72-6.78,4.26,0,5.89,2.94,6.2,4.43h-3.19c-.29-.52-1.2-1.61-3.01-1.61-2.18,0-3.51,1.79-3.51,3.95s1.33,3.95,3.51,3.95c1.94,0,2.75-1.11,3.03-1.61h3.17c-.26,1.31-1.79,4.43-6.2,4.43-3.93,0-6.72-2.88-6.72-6.77Z"/>
          <path class="cls-1" d="M381.26,175.22h-4.97v-2.73h13.05v2.73h-4.97v10.38h-3.12v-10.38Z"/>
          <path class="cls-1" d="M391.56,172.49h7.68c2.9,0,4.67,1.4,4.67,4.12,0,1.83-.92,3.08-2.5,3.66l2.95,5.34h-3.3l-2.77-4.98h-3.6v4.98h-3.14v-13.11ZM394.7,175.19v2.79h4.21c1.16,0,1.79-.46,1.79-1.37,0-1-.61-1.42-1.79-1.42h-4.21Z"/>
          <path class="cls-1" d="M406.61,172.49h3.14v13.11h-3.14v-13.11Z"/>
          <path class="cls-1" d="M412.32,179.05c0-3.9,2.79-6.78,6.72-6.78,4.26,0,5.89,2.94,6.2,4.43h-3.19c-.29-.52-1.2-1.61-3.01-1.61-2.18,0-3.51,1.79-3.51,3.95s1.33,3.95,3.51,3.95c1.94,0,2.75-1.11,3.03-1.61h3.17c-.26,1.31-1.79,4.43-6.2,4.43-3.93,0-6.72-2.88-6.72-6.77Z"/>
          <path class="cls-1" d="M432.31,172.49h3.14v5.15h6.41v-5.15h3.12v13.11h-3.12v-5.19h-6.41v5.19h-3.14v-13.11Z"/>
          <path class="cls-1" d="M448.14,172.49h10.97v2.58h-7.83v2.36h4.67v2.64h-4.67v2.8h8.55v2.72h-11.68v-13.11Z"/>
          <path class="cls-1" d="M471.15,183.33h-6.2l-.98,2.27h-3.16l5.74-13.13h3.21l5.72,13.13h-3.36l-.98-2.27ZM470.02,180.71l-1.97-4.58-1.98,4.58h3.95Z"/>
          <path class="cls-1" d="M479.83,175.22h-4.97v-2.73h13.05v2.73h-4.97v10.38h-3.12v-10.38Z"/>
          <path class="cls-1" d="M490.17,172.49h3.14v13.11h-3.14v-13.11Z"/>
          <path class="cls-1" d="M509.26,185.64h-2.55l-7.15-9.06v9.03h-3.06v-13.11h3.56l6.2,8.03v-8.03h2.99v13.15Z"/>
          <path class="cls-1" d="M519.12,185.84c-4.47,0-7.33-2.73-7.33-6.87s2.8-6.76,6.81-6.76,5.71,2.36,6.07,3.82h-3.3c-.35-.39-1.16-1.09-2.77-1.09-2.23.02-3.64,1.74-3.64,4.03,0,2.44,1.53,4.17,4.23,4.17,1.41,0,2.36-.32,2.77-.57v-2.16h-4.14v-2.57h7.15v6.15c-.74.65-2.73,1.85-5.85,1.85Z"/>
          <path class="cls-1" d="M540.27,183.98c-1.07,1.05-2.27,1.85-4.12,1.85-2.7,0-4.47-1.42-4.47-3.6,0-1.96,1.39-3.05,2.75-3.89-.83-.85-1.4-1.74-1.4-2.86,0-1.79,1.51-3.2,3.88-3.2,2.64,0,4.08,1.33,4.08,3.21,0,1.64-1.37,2.6-2.51,3.27l1.68,1.64,2.01-2.07h3.36l-3.56,3.84,3.49,3.43h-3.49l-1.7-1.63ZM536.26,183.22c.81,0,1.46-.37,2.16-1.03l-2.33-2.23c-.8.55-1.41,1.03-1.41,1.87,0,.77.57,1.4,1.57,1.4ZM536.96,177.26c.68-.46,1.29-.94,1.29-1.66s-.53-1.16-1.26-1.16c-.68,0-1.2.44-1.2,1.07,0,.59.46,1.05,1.02,1.61l.15.15Z"/>
          <path class="cls-1" d="M561.02,183.33h-6.2l-.98,2.27h-3.16l5.74-13.13h3.21l5.72,13.13h-3.36l-.98-2.27ZM559.89,180.71l-1.97-4.58-1.98,4.58h3.95Z"/>
          <path class="cls-1" d="M567.27,172.49h3.14v13.11h-3.14v-13.11Z"/>
          <path class="cls-1" d="M573.61,172.49h7.68c2.9,0,4.67,1.4,4.67,4.12,0,1.83-.92,3.08-2.5,3.66l2.95,5.34h-3.3l-2.77-4.98h-3.6v4.98h-3.14v-13.11ZM576.75,175.19v2.79h4.21c1.16,0,1.79-.46,1.79-1.37,0-1-.61-1.42-1.79-1.42h-4.21Z"/>
          <path class="cls-1" d="M592.64,179.05c0-3.9,2.79-6.78,6.72-6.78,4.26,0,5.89,2.94,6.21,4.43h-3.2c-.29-.52-1.2-1.61-3.01-1.61-2.18,0-3.51,1.79-3.51,3.95s1.33,3.95,3.51,3.95c1.94,0,2.75-1.11,3.03-1.61h3.18c-.26,1.31-1.79,4.43-6.21,4.43-3.93,0-6.72-2.88-6.72-6.77Z"/>
          <path class="cls-1" d="M607.17,179.05c0-4.03,3.03-6.78,6.96-6.78s6.94,2.75,6.94,6.78-3.03,6.77-6.94,6.77-6.96-2.77-6.96-6.77ZM617.88,179.05c0-2.2-1.44-3.97-3.75-3.97s-3.77,1.75-3.77,3.97,1.46,3.97,3.77,3.97,3.75-1.75,3.75-3.97Z"/>
          <path class="cls-1" d="M636.36,185.64h-2.55l-7.15-9.06v9.03h-3.06v-13.11h3.56l6.2,8.03v-8.03h2.99v13.15Z"/>
          <path class="cls-1" d="M639.51,172.49h5.43c4.19,0,7.18,2.25,7.18,6.55s-2.99,6.55-7.18,6.55h-5.43v-13.11ZM642.65,175.19v7.72h2.23c2.42,0,4.04-1.42,4.04-3.86s-1.63-3.86-4.04-3.86h-2.23Z"/>
          <path class="cls-1" d="M654.69,172.49h3.14v13.11h-3.14v-13.11Z"/>
          <path class="cls-1" d="M665.05,175.22h-4.97v-2.73h13.05v2.73h-4.97v10.38h-3.12v-10.38Z"/>
          <path class="cls-1" d="M675.39,172.49h3.14v13.11h-3.14v-13.11Z"/>
          <path class="cls-1" d="M681.11,179.05c0-4.03,3.03-6.78,6.96-6.78s6.94,2.75,6.94,6.78-3.03,6.77-6.94,6.77-6.96-2.77-6.96-6.77ZM691.82,179.05c0-2.2-1.44-3.97-3.75-3.97s-3.77,1.75-3.77,3.97,1.46,3.97,3.77,3.97,3.75-1.75,3.75-3.97Z"/>
          <path class="cls-1" d="M710.29,185.64h-2.55l-7.15-9.06v9.03h-3.06v-13.11h3.56l6.2,8.03v-8.03h2.99v13.15Z"/>
          <path class="cls-1" d="M713.48,172.49h3.14v13.11h-3.14v-13.11Z"/>
          <path class="cls-1" d="M732.58,185.64h-2.55l-7.15-9.06v9.03h-3.06v-13.11h3.56l6.2,8.03v-8.03h2.99v13.15Z"/>
          <path class="cls-1" d="M742.44,185.84c-4.47,0-7.33-2.73-7.33-6.87s2.8-6.76,6.81-6.76,5.71,2.36,6.07,3.82h-3.3c-.35-.39-1.16-1.09-2.77-1.09-2.23.02-3.64,1.74-3.64,4.03,0,2.44,1.53,4.17,4.23,4.17,1.41,0,2.36-.32,2.77-.57v-2.16h-4.14v-2.57h7.15v6.15c-.74.65-2.73,1.85-5.85,1.85Z"/>
        </g>
      </g>
    </g>
  </g>
</svg>