<?xml version="1.0" encoding="UTF-8"?>
<svg id="Layer_1" xmlns="http://www.w3.org/2000/svg" version="1.1" viewBox="0 0 1183.3 421.9">
  <!-- Generator: Adobe Illustrator 30.2.1, SVG Export Plug-In . SVG Version: 2.1.1 Build 1)  -->
  <defs>
    <style>
      .st0 {
        fill: #2b3765;
      }

      .st1 {
        isolation: isolate;
      }

      .st2 {
        fill: #1d2956;
      }
    </style>
  </defs>
  <rect class="st0" x="71.6" y="304.1" width="1094.4" height="16.2"/>
  <g>
    <path class="st2" d="M335.7,169.4l-63.3-65.1v-46.8c0-1.9-.8-3.7-2.1-5.1s-3.2-2.1-5.1-2.1h-36.1c-1.9,0-3.7.8-5.1,2.1s-.7.8-.9,1.2l-36.5-39.2c-1.3-1.4-3.2-2.3-5.1-2.3-2,0-3.8.8-5.2,2.2L25,169.4c-2,2.1-2.6,5.1-1.5,7.8,1.1,2.6,3.7,4.4,6.6,4.4h43.7v88.3c0,1.9.8,3.7,2.1,5.1s3.2,2.1,5.1,2.1h157c1.9,0,3.7-.8,5.1-2.1s2.1-3.2,2.1-5.1v-102.2h22.8c2.9,0,5.4-1.7,6.6-4.4s.6-5.7-1.4-7.8l-86.7-90.3c-1.3-1.4-3.2-2.2-5.1-2.2-1.9,0-3.8.8-5.1,2.2l-88.3,90.3c-2,2.1-2.6,5.1-1.5,7.8,1.1,2.6,3.7,4.4,6.6,4.4h21.8v65.7c0,1.9.8,3.7,2.1,5.1,1.3,1.3,3.2,2.1,5.1,2.1h38c.2,0,.4,0,.5,0v5.4c0,3.8,3.1,6.9,6.9,6.9h26.4c3.8,0,6.9-3.1,6.9-6.9v-25.8c0-3.8-3.1-6.9-6.9-6.9h-26.4c-3.8,0-6.9,3.1-6.9,6.9v6.2c-.2,0-.4,0-.5,0h-30.9v-65.7c0-1.9-.8-3.7-2.1-5.1-1.3-1.3-3.2-2.1-5.1-2.1h-11.9l71.3-72.9,70,72.9h-13.1c-1.9,0-3.7.8-5.1,2.1s-2.1,3.2-2.1,5.1v102.2H88.2v-88.3c0-1.9-.8-3.7-2.1-5.1-1.3-1.3-3.2-2.1-5.1-2.1h-33.9L181.3,29.7l42.6,45.8c2,2.2,5.1,2.9,7.9,1.8,2.7-1.1,4.5-3.7,4.5-6.7v-5.9h21.7v42.5c0,1.9.7,3.7,2,5l53.5,55h-33.5c-1.9,0-3.7.8-5.1,2.1s-2.1,3.2-2.1,5.1v38.4c-4,1.7-6.9,5.6-6.9,10.3v9.3c-1.7.1-3,1.5-3,3.1s1.4,3.2,3.2,3.2h4.1v8.8c0,1.8,1.4,3.2,3.2,3.2h1c1.8,0,3.2-1.4,3.2-3.2v-8.8h5.2v8.8c0,1.8,1.4,3.2,3.2,3.2h1c1.8,0,3.2-1.4,3.2-3.2v-8.8h3.7c1.8,0,3.2-1.4,3.2-3.2s-1.4-3.1-3-3.1v-9.3c0-4.6-2.8-8.6-6.9-10.2v-31.2h43.3c2.9,0,5.5-1.7,6.6-4.4s.5-5.7-1.5-7.8h0ZM180.5,220.6c6.9,0,12.4,5.6,12.4,12.4s-5.6,12.4-12.4,12.4-12.4-5.6-12.4-12.4,5.6-12.4,12.4-12.4h0Z"/>
    <circle class="st2" cx="180.5" cy="228.2" r="4.1"/>
    <circle class="st2" cx="180.5" cy="237.9" r="4.1"/>
  </g>
  <g>
    <path class="st2" d="M355.4,131.4h82s3.1,16.4-5.7,16.4h-25.8v114.9h-19.2v-114.9h-31.2v-16.4h0Z"/>
    <path class="st2" d="M453.1,131.4h74.5s5.7,13.1,0,22.5-58.5,91.5-58.5,91.5h30.3c5.8,0,11.6.1,17.4-.2,3-.2,6.1-.4,9.1-1.2,1.5-.3,3.2-.6,4.5-1.5.4-.2.9-.6.9-1.1,0,0,5.6,21.3-12,21.3h-67.6s-5.7-11.2,0-21.6,58.7-93,58.7-93h-57.3v-16.7h0Z"/>
    <path class="st2" d="M595.5,131.4v118.9s.9,12.4,9.4,12.4h44.5c9.2,0,23.6,1.1,23.6-12.7v-5h-58.2v-40.3h45.9v-16.4h-45.9v-39.1c9.2,0,18.4,0,27.6,0,4.6,0,9.2,0,13.8,0,3.3,0,8.7.7,11.6-1.2,2.3-1.6,2.8-4.8,2.9-7.4,0-.7-.2-9.2-.3-9.2h-74.9Z"/>
    <path class="st2" d="M695.6,122.1v127.5c0,5,6.1,13.2,13.3,13.2h15.3s4.9,1.4,4.9-7.5-3.2-8.2-4.9-8.2h-6.2s-4.7.7-4.7-7.1v-108.5s-.4-9.3-8-9.3h-9.7Z"/>
    <path class="st2" d="M778.6,165.8c-45,0-37,64.5-37,64.5,0,0,6.6,35.3,35.5,35.3s35.5-11.9,35.5-11.9l-5.7-12.5s-14.9,8.2-26.7,8.2-19.8-10.6-19.8-28.6h53.3s9.7-55-35.2-55h0ZM796.9,207.1h-36.1s-.3-24.8,17.5-25.6c21.2-1,18.6,25.6,18.6,25.6h0Z"/>
    <path class="st2" d="M883.8,204.1s1.7-22.8-15.2-22.8-18,24-18,38.9,6.6,28.9,19.5,28.9,22.1-10.3,22.1-10.3c0,0,3.4,3,4.9,5.8s3.2,6.1,2.3,7.3c-.9,1.2-12.9,13.7-29.5,13.7s-38.1-12.2-38.1-46.2,13.8-53.8,37-53.8,32.4,19.5,32.4,27.1-.9,15.5-17.2,11.6Z"/>
    <path class="st2" d="M1148.8,204.1s1.7-22.8-15.2-22.8-18.1,24-18.1,38.9,6.6,28.9,19.5,28.9,22.1-10.3,22.1-10.3c0,0,3.4,3,4.9,5.8s3.2,6.1,2.3,7.3-12.9,13.7-29.5,13.7-38.1-12.2-38.1-46.2,13.8-53.8,37-53.8,32.4,19.5,32.4,27.1-.9,15.5-17.2,11.6h0Z"/>
    <path class="st2" d="M943.9,142.7v-3.3h-13.8s-4.6.9-4.6,10.3v17.9h-14.3v14h13.8v64.1c0,.9,2.9,17,16.3,17s22.9-1.5,22.9-1.5v-10.3s1.2-3.6-4-3.6h-10.9s-5.7.6-5.7-7.3.3-58.4.3-58.4h22.1v-14h-22.1v-24.9h0Z"/>
    <path class="st2" d="M980,178.2s3.7-10.6,6.3-10.9,14.9,4.3,16.9,15.8c0,0,8-16.1,19.8-15.5,11.8.6,13.2.6,13.2.6,0,0-.9,15.5-4,18.2-2,.3-8,0-10,0s-16.3,2.1-16.3,19.1v57.5h-18.6v-66.6s.3-11.9-7.2-18.2h0Z"/>
    <path class="st2" d="M1045.4,167.9v14.3h4.9s5.2-.3,5.2,7.6v73.3h20.1l-1-77.2s-.1-18.9-11.9-18.9-17.2.9-17.2.9h0Z"/>
    <rect class="st2" x="1050.6" y="131.7" width="22.6" height="20.2" rx="1.1" ry="1.1"/>
  </g>
  <g class="st1">
    <g class="st1">
      <path class="st0" d="M79.2,352.7h18.5c3.7,0,6.6,1,8.9,3.1,2.3,2.1,3.4,5,3.4,8.8s-1,6-3,8.4c-2,2.4-5.1,3.6-9.2,3.6h-12.9v17.5h-5.6v-41.4ZM101,358.4c-1.2-.6-2.9-.9-5.1-.9h-11.1v14.3h11.1c2.5,0,4.5-.5,6.1-1.6s2.3-3,2.3-5.7-1.1-5.1-3.4-6.2Z"/>
      <path class="st0" d="M124.1,352.7h5.6v36.5h20.8v4.9h-26.4v-41.4Z"/>
      <path class="st0" d="M169.2,352.7v25.6c0,3,.6,5.5,1.7,7.5,1.7,3,4.5,4.5,8.5,4.5s8-1.6,9.8-4.9c.9-1.8,1.4-4.1,1.4-7.1v-25.6h5.7v23.3c0,5.1-.7,9-2.1,11.8-2.5,5-7.3,7.5-14.3,7.5s-11.8-2.5-14.3-7.5c-1.4-2.7-2.1-6.7-2.1-11.8v-23.3h5.7Z"/>
      <path class="st0" d="M211.6,352.7h8l11.9,35,11.8-35h8v41.4h-5.4v-24.4c0-.8,0-2.2,0-4.2,0-2,0-4,0-6.3l-11.8,34.9h-5.6l-11.9-34.9v1.3c0,1,0,2.6,0,4.6,0,2.1,0,3.6,0,4.6v24.4h-5.4v-41.4Z"/>
      <path class="st0" d="M266.6,352.7h17.9c4.9,0,8.4,1.4,10.4,4.3,1.2,1.7,1.8,3.7,1.8,5.9s-.7,4.8-2.2,6.4c-.8.9-1.9,1.7-3.3,2.4,2.1.8,3.7,1.7,4.8,2.7,1.9,1.8,2.8,4.3,2.8,7.5s-.8,5.1-2.5,7.2c-2.5,3.2-6.5,4.8-12,4.8h-17.6v-41.4ZM282.4,370.2c2.4,0,4.3-.3,5.6-1,2.1-1,3.1-2.9,3.1-5.6s-1.1-4.5-3.3-5.5c-1.3-.5-3.1-.8-5.6-.8h-10.1v12.8h10.3ZM284.3,389.3c3.5,0,5.9-1,7.4-3,.9-1.3,1.4-2.8,1.4-4.6,0-3-1.4-5.1-4.1-6.1-1.4-.6-3.3-.9-5.7-.9h-11.2v14.6h12.2Z"/>
      <path class="st0" d="M313.5,352.7h5.7v41.4h-5.7v-41.4Z"/>
      <path class="st0" d="M335.2,352.7h6.6l20.6,33.5v-33.5h5.4v41.4h-6.3l-21-33.4v33.4h-5.4v-41.4Z"/>
      <path class="st0" d="M411.4,353.9c4.1,2.2,6.5,5.9,7.4,11.4h-5.6c-.7-3-2-5.2-4.1-6.6-2.1-1.4-4.7-2.1-7.9-2.1s-6.9,1.4-9.5,4.3-3.9,7.2-3.9,12.9,1.1,8.9,3.2,12c2.1,3.1,5.6,4.6,10.4,4.6s6.7-1.1,9.1-3.3,3.6-5.7,3.7-10.5h-13v-4.7h18.2v22.2h-3.6l-1.4-5.3c-1.9,2.1-3.5,3.5-5,4.3-2.4,1.4-5.5,2.1-9.2,2.1s-9-1.6-12.5-4.8c-3.8-4-5.7-9.5-5.7-16.4s1.9-12.4,5.6-16.5c3.5-3.9,8.1-5.9,13.7-5.9s7.1.8,9.9,2.3Z"/>
      <path class="st0" d="M463.1,394.1h-4.8v-42h4.8v42Z"/>
      <path class="st0" d="M503.6,352.7h5.7v17.1h21.3v-17.1h5.7v41.4h-5.7v-19.4h-21.3v19.4h-5.7v-41.4Z"/>
      <path class="st0" d="M552.6,352.7h30v5.1h-24.6v12.6h22.7v4.8h-22.7v14h25v4.9h-30.5v-41.4Z"/>
    </g>
    <g class="st1">
      <path class="st0" d="M605.8,352.7h6.3l15,41.4h-6.1l-4.2-12.4h-16.4l-4.5,12.4h-5.8l15.6-41.4ZM615,377.1l-6.3-18.3-6.7,18.3h13Z"/>
    </g>
    <g class="st1">
      <path class="st0" d="M664.8,352.7v4.9h-14v36.5h-5.7v-36.5h-14v-4.9h33.6Z"/>
      <path class="st0" d="M678.1,352.7h5.7v41.4h-5.7v-41.4Z"/>
      <path class="st0" d="M699.8,352.7h6.6l20.7,33.5v-33.5h5.4v41.4h-6.3l-21-33.4v33.4h-5.4v-41.4Z"/>
      <path class="st0" d="M776,353.9c4.1,2.2,6.5,5.9,7.4,11.4h-5.6c-.7-3-2-5.2-4.1-6.6-2.1-1.4-4.7-2.1-7.9-2.1s-6.9,1.4-9.5,4.3-3.9,7.2-3.9,12.9,1.1,8.9,3.2,12c2.1,3.1,5.6,4.6,10.4,4.6s6.7-1.1,9.1-3.3,3.6-5.7,3.7-10.5h-13v-4.7h18.2v22.2h-3.6l-1.4-5.3c-1.9,2.1-3.5,3.5-5,4.3-2.4,1.4-5.5,2.1-9.2,2.1s-9-1.6-12.5-4.8c-3.8-4-5.7-9.5-5.7-16.4s1.9-12.4,5.6-16.5c3.5-3.9,8.1-5.9,13.7-5.9s7.1.8,9.9,2.3Z"/>
      <path class="st0" d="M827.7,394.1h-4.8v-42h4.8v42Z"/>
      <path class="st0" d="M897.4,355.7c2.9,2.8,4.4,5.9,4.8,9.4h-5.5c-.6-2.7-1.8-4.8-3.6-6.3-1.8-1.6-4.4-2.3-7.7-2.3s-7.2,1.4-9.7,4.3-3.7,7.3-3.7,13.2,1.1,8.8,3.3,11.8,5.5,4.5,10,4.5,7.2-1.6,9.3-4.8c1.1-1.7,2-3.9,2.5-6.6h5.5c-.5,4.4-2.1,8-4.8,11-3.2,3.6-7.6,5.3-13.2,5.3s-8.8-1.5-12-4.4c-4.3-3.9-6.4-9.8-6.4-17.9s1.6-11.1,4.8-15c3.5-4.2,8.2-6.4,14.3-6.4s9.2,1.4,12.1,4.1Z"/>
      <path class="st0" d="M950.9,358.6c2.7,3.7,4.1,8.4,4.1,14.1s-1.6,11.3-4.7,15.4c-3.7,4.8-8.9,7.2-15.8,7.2s-11.4-2.1-15-6.3c-3.3-4.1-4.9-9.2-4.9-15.4s1.4-10.4,4.2-14.4c3.6-5.1,8.9-7.7,15.8-7.7s12.7,2.3,16.2,7ZM945.9,385c2.2-3.5,3.3-7.6,3.3-12.2s-1.3-8.8-3.8-11.8-6-4.5-10.4-4.5-7.8,1.5-10.5,4.4-4.1,7.3-4.1,13,1.2,8.5,3.5,11.6,6.1,4.7,11.3,4.7,8.5-1.8,10.7-5.3Z"/>
      <path class="st0" d="M1002.7,358.6c2.7,3.7,4.1,8.4,4.1,14.1s-1.6,11.3-4.7,15.4c-3.7,4.8-8.9,7.2-15.8,7.2s-11.4-2.1-15-6.3c-3.3-4.1-4.9-9.2-4.9-15.4s1.4-10.4,4.2-14.4c3.6-5.1,8.9-7.7,15.8-7.7s12.7,2.3,16.2,7ZM997.8,385c2.2-3.5,3.3-7.6,3.3-12.2s-1.3-8.8-3.8-11.8-6-4.5-10.4-4.5-7.8,1.5-10.5,4.4-4.1,7.3-4.1,13,1.2,8.5,3.5,11.6,6.1,4.7,11.3,4.7,8.5-1.8,10.7-5.3Z"/>
      <path class="st0" d="M1020.4,352.7h5.6v36.5h20.8v4.9h-26.4v-41.4Z"/>
      <path class="st0" d="M1060.7,352.7h5.7v41.4h-5.7v-41.4Z"/>
      <path class="st0" d="M1082.4,352.7h6.6l20.6,33.5v-33.5h5.4v41.4h-6.3l-21-33.4v33.4h-5.4v-41.4Z"/>
      <path class="st0" d="M1158.6,353.9c4.1,2.2,6.5,5.9,7.4,11.4h-5.6c-.7-3-2-5.2-4.1-6.6-2.1-1.4-4.7-2.1-7.9-2.1s-6.9,1.4-9.5,4.3-3.9,7.2-3.9,12.9,1.1,8.9,3.2,12c2.1,3.1,5.6,4.6,10.4,4.6s6.7-1.1,9.1-3.3,3.6-5.7,3.7-10.5h-13v-4.7h18.2v22.2h-3.6l-1.4-5.3c-1.9,2.1-3.5,3.5-5,4.3-2.4,1.4-5.5,2.1-9.2,2.1s-9-1.6-12.5-4.8c-3.8-4-5.7-9.5-5.7-16.4s1.9-12.4,5.6-16.5c3.5-3.9,8.1-5.9,13.7-5.9s7.1.8,9.9,2.3Z"/>
    </g>
  </g>
</svg>